# AST/ASF file generated using VICON BodyLanguage
# -----------------------------------------------
:version 1.10
:name VICON
:units
  mass 1.0
  length 0.45
  angle deg
:documentation
   .ast/.asf automatically generated from VICON data using
   VICON BodyBuilder and BodyLanguage model FoxedUp or BRILLIANT.MOD
:root
   order TX TY TZ RX RY RZ
   axis XYZ
   position 0 0 0  
   orientation 0 0 0 
:bonedata
  begin
     id 1 
     name lhipjoint
     direction 0.643824 -0.71708 0.266994 
     length 2.52133 
     axis 0 0 0  XYZ
  end
  begin
     id 2 
     name lfemur
     direction 0.34202 -0.939693 0  
     length 7.51824  
     axis 0 0 20  XYZ
    dof rx ry rz
    limits (-160.0 20.0)
           (-70.0 70.0)
           (-60.0 70.0)
  end
  begin
     id 3 
     name ltibia
     direction 0.34202 -0.939693 0   
     length 7.3685   
     axis 0 0 20   XYZ
    dof rx
    limits (-10.0 170.0)
  end
  begin
     id 4 
     name lfoot
     direction 0.105419 -0.289636 0.951314   
     length 2.20972   
     axis -90 7.62852e-016 20   XYZ
    dof rx rz
    limits (-45.0 90.0)
           (-70.0 20.0)
  end
  begin
     id 5 
     name ltoes
     direction 1.53549e-011 -4.21833e-011 1   
     length 1.10139   
     axis -90 7.62852e-016 20   XYZ
    dof rx
    limits (-90.0 20.0)
  end
  begin
     id 6 
     name rhipjoint
     direction -0.608823 -0.743445 0.276811   
     length 2.43192  
     axis 0 0 0  XYZ 
  end
  begin
     id 7 
     name rfemur
     direction -0.34202 -0.939693 0   
     length 7.69715   
     axis 0 0 -20   XYZ
    dof rx ry rz
    limits (-160.0 20.0)
           (-70.0 70.0)
           (-70.0 60.0)
  end
  begin
     id 8 
     name rtibia
     direction -0.34202 -0.939693 0   
     length 7.44924   
     axis 0 0 -20   XYZ
    dof rx
    limits (-10.0 170.0)
 end
 begin
     id 9 
     name rfoot
     direction -0.103614 -0.284677 0.953007   
     length 2.22623  
     axis -90 -7.62852e-016 -20   XYZ
    dof rx rz
    limits (-45.0 90.0)
           (-20.0 70.0)
  end
  begin
     id 10 
     name rtoes
     direction -1.53537e-011 -4.22026e-011 1   
     length 1.11   
     axis -90 -7.62852e-016 -20   XYZ
    dof rx
    limits (-90.0 20.0)
  end
  begin
     id 11 
     name lowerback
     direction -0.0101212 0.99662 -0.0815298   
     length 2.08277   
     axis 0 0 0   XYZ
    dof rx ry rz
    limits (-20.0 45.0)
           (-30.0 30.0)
           (-30.0 30.0)
  end
  begin
     id 12 
     name upperback
     direction 0.024314 0.999591 -0.0150645   
     length 2.08524   
     axis 0 0 0   XYZ
    dof rx ry rz
    limits (-20.0 45.0)
           (-30.0 30.0)
           (-30.0 30.0)
  end
  begin
     id 13 
     name thorax
     direction 0.0285959 0.999323 0.0231357   
     length 2.09645   
     axis 0 0 0   XYZ
    dof rx ry rz
    limits (-20.0 45.0)
           (-30.0 30.0)
           (-30.0 30.0)
  end
  begin
     id 14 
     name lowerneck
     direction -0.065512 0.979301 0.191515   
     length 1.63798   
     axis 0 0 0   XYZ
    dof rx ry rz
    limits (-20.0 45.0)
           (-30.0 30.0)
           (-30.0 30.0)
  end
  begin
     id 15 
     name upperneck
     direction 0.0498479 0.98191 -0.182667   
     length 1.68731   
     axis 0 0 0   XYZ
    dof rx ry rz
    limits (-20.0 45.0)
           (-30.0 30.0)
           (-30.0 30.0)
  end
  begin
     id 16
     name head
     direction 0.0230358 0.996257 -0.0833175  
     length 1.69785  
     axis 0 0 0   XYZ
    dof rx ry rz
    limits (-20.0 45.0)
           (-30.0 30.0)
           (-30.0 30.0)
  end
  begin
     id 17 
     name lclavicle
     direction 0.967963 0.201165 -0.150269  
     length 3.63976  
     axis 0 0 0   XYZ
    dof ry rz
    limits (-20.0 10.0)
           (0.0 20.0)
  end
  begin
     id 18 
     name lhumerus
     direction 1 -4.48954e-011 -2.92837e-028   
     length 5.32462   
     axis 180 -30 -90   XYZ
    dof rx ry rz
    limits (-60.0 90.0)
           (-90.0 90.0)
           (-90.0 90.0)
  end
  begin
     id 19
     name lradius
     direction 1 -4.48958e-011 -6.39511e-027   
     length 3.48402   
     axis 180 -30 -90   XYZ
    dof rx
    limits (-10.0 170.0)
  end
  begin
     id 20
     name lwrist
     direction 1 -4.48975e-011 -1.1413e-026   
     length 1.74201   
     axis 6.88575e-015 90 90   XYZ
    dof ry
    limits (-180.0 0.0)
 end
  begin
     id 21 
     name lhand
     direction 1 -4.48899e-011 -2.28192e-026   
     length 0.572476   
     axis 1.45643e-014 90 90   XYZ
    dof rx rz
    limits (-90.0 90.0)
           (-45.0 45.0)
  end
  begin
     id 22 
     name lfingers
     direction 1 -4.49155e-011 -4.5684e-026   
     length 0.461545   
     axis 2.91283e-014 90 90   XYZ
    dof rx
    limits (0.0 90.0)
  end
  begin
     id 23
     name lthumb
     direction 0.707107 -6.34943e-011 0.707107   
     length 0.662688   
     axis -90 45 -2.25915e-014   XYZ
    dof rx rz
    limits (-45.0 45.0)
           (-45.0 45.0)
  end
  begin
     id 24 
     name rclavicle
     direction -0.964103 0.264019 -0.0282629   
     length 3.54491  
     axis 0 0 0   XYZ 
    dof ry rz
    limits (-10.0 20.0)
           (-20.0 0.0)
  end
  begin
     id 25 
     name rhumerus
     direction -1 -4.48964e-011 -2.45032e-027  
     length 5.33589   
     axis 180 30 90   XYZ
    dof rx ry rz
    limits (-90.0 60.0)
           (-90.0 90.0)
           (-90.0 90.0)
  end
  begin
     id 26 
     name rradius
     direction -1 -4.48987e-011 -1.55093e-027   
     length 3.64134   
     axis 180 30 90   XYZ
    dof rx
    limits (-10.0 170.0)
  end
  begin
     id 27 
     name rwrist
     direction -1 -4.4897e-011 -1.14128e-026   
     length 1.82067   
     axis 6.88575e-015 -90 -90   XYZ
    dof ry
    limits (-180.0 0.0)
  end
  begin
     id 28
     name rhand
     direction -1 -4.49021e-011 -2.28301e-026   
     length 0.734811   
     axis 1.45643e-014 -90 -90   XYZ
    dof rx rz
    limits (-90.0 90.0)
           (-45.0 45.0)
  end
  begin
     id 29
     name rfingers
     direction -1 -4.48862e-011 -4.56319e-026   
     length 0.592424   
     axis 2.91283e-014 -90 -90   XYZ
    dof rx
    limits (0.0 90.0)
  end
  begin
     id 30
     name rthumb
     direction -0.707107 -6.34978e-011 0.707107   
     length 0.850605   
     axis -90 -45 2.25915e-014   XYZ
    dof rx rz
    limits (-45.0 45.0)
           (-45.0 45.0)
  end
:hierarchy
  begin
    root lhipjoint rhipjoint lowerback
    lhipjoint lfemur
    lfemur ltibia
    ltibia lfoot
    lfoot ltoes
    rhipjoint rfemur
    rfemur rtibia
    rtibia rfoot
    rfoot rtoes
    lowerback upperback
    upperback thorax
    thorax lowerneck lclavicle rclavicle
    lowerneck upperneck
    upperneck head
    lclavicle lhumerus
    lhumerus lradius
    lradius lwrist
    lwrist lhand lthumb
    lhand lfingers
    rclavicle rhumerus
    rhumerus rradius
    rradius rwrist
    rwrist rhand rthumb
    rhand rfingers
  end

#!OML:ASF F:\VICON\USERDATA\INSTALL\rory3\rory3.ASF
:FULLY-SPECIFIED
:DEGREES
1
root -4.61513 18.0382 -5.70975 -2.53345 -47.5348 24.1451
lowerback 11.6975 1.4313 4.41798
upperback 5.51353 2.21834 10.266
thorax -0.986337 0.924048 8.131
lowerneck -5.23714 -12.8835 -13.2731
upperneck 30.863 -18.3268 3.62608
head 12.7444 -9.25277 1.09465
rclavicle 1.59028e-014 -3.18055e-014
rhumerus 4.00182 -12.2652 -83.1357
rradius 37.8372
rwrist -22.4316
rhand -15.6018 -20.1303
rfingers 7.12502
rthumb 10.5843 -49.8438
lclavicle 1.59028e-014 -3.18055e-014
lhumerus -32.7929 -38.7278 104.532
lradius 77.2485
lwrist 61.8807
lhand -23.6672 43.242
lfingers 7.12502
lthumb 2.79873 73.2033
rfemur -34.3592 -2.84015 4.56967
rtibia 37.946
rfoot -19.4639 -5.72135
rtoes 17.6263
lfemur -21.3577 -1.81422 -25.3275
ltibia 15.035
lfoot 7.8393 -7.65024
ltoes -9.1539
2
root -4.62135 18.0385 -5.70984 -2.54138 -47.4715 24.0395
lowerback 11.7992 1.62765 4.74808
upperback 5.6221 2.50402 10.2385
thorax -0.941565 1.06891 7.87091
lowerneck -5.36825 -13.1108 -12.9638
upperneck 30.9345 -18.6803 3.58701
head 12.794 -9.3655 0.967958
rclavicle -9.54166e-015 -3.18055e-014
rhumerus 4.47342 -10.8089 -83.7475
rradius 37.5163
rwrist -22.2229
rhand -13.1485 -20.2642
rfingers 7.12502
rthumb 12.95 -49.8423
lclavicle -9.54166e-015 -3.18055e-014
lhumerus -33.1678 -38.4561 104.291
lradius 77.8077
lwrist 64.8789
lhand -24.8638 43.8023
lfingers 7.12502
lthumb 1.64312 73.7758
rfemur -34.2166 -2.62906 4.56979
rtibia 37.9645
rfoot -19.6493 -5.77812
rtoes 18.1821
lfemur -21.3201 -1.76571 -25.3344
ltibia 15.2298
lfoot 7.61221 -7.66149
ltoes -9.34521
3
root -4.62822 18.0385 -5.71645 -2.6001 -47.4288 24.0021
lowerback 11.9714 1.81678 4.90706
upperback 5.7158 2.77384 10.2307
thorax -0.955385 1.20385 7.73268
lowerneck -5.456 -13.3391 -12.6984
upperneck 30.9521 -19.0255 3.5376
head 12.8145 -9.48263 0.849685
rclavicle -6.36111e-015 -3.81667e-014
rhumerus 4.99275 -9.519 -84.4163
rradius 37.1181
rwrist -21.859
rhand -10.7582 -20.3267
rfingers 7.12502
rthumb 15.2534 -49.7443
lclavicle -6.36111e-015 -3.81667e-014
lhumerus -33.4606 -37.8669 103.979
lradius 78.2698
lwrist 66.9124
lhand -25.5712 44.8339
lfingers 7.12502
lthumb 0.959872 74.8114
rfemur -34.1358 -2.41394 4.55381
rtibia 38.0823
rfoot -19.8844 -5.8535
rtoes 18.2638
lfemur -21.1772 -1.47487 -25.4162
ltibia 15.1689
lfoot 7.53053 -7.9749
ltoes -9.69322
4
root -4.63324 18.0353 -5.72253 -2.64371 -47.2888 24.1698
lowerback 11.9958 1.96242 4.85822
upperback 5.73153 2.96343 10.2269
thorax -0.973794 1.29864 7.73027
lowerneck -5.36666 -13.4862 -12.5141
upperneck 30.774 -19.285 3.64777
head 12.7375 -9.56336 0.835185
rclavicle 1.27222e-014 -6.99722e-014
rhumerus 5.45917 -8.26207 -85.0308
rradius 36.7435
rwrist -21.4793
rhand -8.8048 -20.171
rfingers 7.12502
rthumb 17.1343 -49.4355
lclavicle 1.27222e-014 -6.99722e-014
lhumerus -33.7314 -37.0424 103.752
lradius 78.5483
lwrist 68.1795
lhand -26.2236 45.759
lfingers 7.12502
lthumb 0.32982 75.7385
rfemur -34.2216 -2.45251 4.40478
rtibia 38.183
rfoot -20.0055 -5.90169
rtoes 18.2435
lfemur -21.2474 -1.34408 -25.6227
ltibia 15.1325
lfoot 7.59604 -8.17709
ltoes -9.70333
5
root -4.63825 18.0308 -5.72112 -2.62393 -47.1524 24.2516
lowerback 11.9194 2.09034 4.9026
upperback 5.77669 3.12264 10.2452
thorax -0.898652 1.37826 7.70591
lowerneck -5.31045 -13.6254 -12.3927
upperneck 30.6398 -19.5396 3.80629
head 12.6992 -9.64157 0.842692
rclavicle 1.90833e-014 -3.18055e-014
rhumerus 5.75774 -6.84105 -85.4167
rradius 36.6239
rwrist -21.3878
rhand -7.69591 -19.964
rfingers 7.12502
rthumb 18.2014 -49.1324
lclavicle 1.90833e-014 -3.18055e-014
lhumerus -33.9332 -36.2098 103.535
lradius 78.7174
lwrist 69.0561
lhand -26.8553 46.6591
lfingers 7.12502
lthumb -0.280295 76.6386
rfemur -34.2885 -2.38972 4.26474
rtibia 38.2765
rfoot -20.2005 -5.95259
rtoes 18.5205
lfemur -21.2926 -1.69678 -25.6656
ltibia 15.0831
lfoot 7.63926 -7.70665
ltoes -8.93696
6
root -4.64452 18.0274 -5.71761 -2.55086 -47.0008 24.2182
lowerback 11.8536 2.1924 5.04664
upperback 5.83067 3.25632 10.2651
thorax -0.81102 1.44596 7.63009
lowerneck -5.46006 -13.7783 -12.1954
upperneck 30.7419 -19.7694 3.75201
head 12.7621 -9.71462 0.743601
rclavicle -1.59028e-014 -4.77083e-014
rhumerus 6.05818 -5.55853 -85.8027
rradius 36.5111
rwrist -21.435
rhand -7.11088 -19.7502
rfingers 7.12502
rthumb 18.7642 -48.8652
lclavicle -1.59028e-014 -4.77083e-014
lhumerus -34.0774 -35.3996 103.264
lradius 78.8992
lwrist 69.9955
lhand -27.6152 47.5087
lfingers 7.12502
lthumb -1.01424 77.4861
rfemur -34.2895 -2.32974 4.22365
rtibia 38.3477
rfoot -20.3645 -6.05782
rtoes 18.3344
lfemur -21.3161 -1.9491 -25.6782
ltibia 15.056
lfoot 7.58686 -7.46271
ltoes -9.28747
7
root -4.65138 18.0272 -5.71505 -2.44764 -46.8588 24.2022
lowerback 11.7998 2.28172 5.16165
upperback 5.82119 3.38114 10.2757
thorax -0.797334 1.51022 7.56031
lowerneck -5.45839 -13.9089 -12.0698
upperneck 30.7842 -19.9705 3.70852
head 12.7772 -9.78866 0.677104
rclavicle 3.18055e-014 -3.81667e-014
rhumerus 6.38968 -4.50623 -86.2608
rradius 36.2525
rwrist -21.3817
rhand -6.88957 -19.6347
rfingers 7.12502
rthumb 18.977 -48.729
lclavicle 3.18055e-014 -3.81667e-014
lhumerus -34.2294 -34.6191 102.994
lradius 79.0207
lwrist 70.9526
lhand -28.1431 48.1407
lfingers 7.12502
lthumb -1.52414 78.115
rfemur -34.3187 -2.30554 4.17876
rtibia 38.3661
rfoot -20.4387 -6.20607
rtoes 18.2129
lfemur -21.4301 -2.08753 -25.7392
ltibia 15.1421
lfoot 7.4632 -7.38634
ltoes -9.85252
8
root -4.65763 18.0268 -5.71557 -2.37142 -46.7355 24.2132
lowerback 11.8269 2.38919 5.18977
upperback 5.77622 3.53582 10.3201
thorax -0.875562 1.58785 7.57078
lowerneck -5.17572 -14.0628 -12.0857
upperneck 30.5672 -20.2353 3.84237
head 12.6752 -9.89914 0.713704
rclavicle 6.36111e-015 5.08889e-014
rhumerus 6.64012 -3.39596 -86.4753
rradius 36.027
rwrist -21.3277
rhand -6.76337 -19.7992
rfingers 7.12502
rthumb 19.0984 -48.8815
lclavicle 6.36111e-015 5.08889e-014
lhumerus -34.4174 -33.9065 102.858
lradius 79.0019
lwrist 71.8161
lhand -28.7897 48.3034
lfingers 7.12502
lthumb -2.14857 78.2723
rfemur -34.344 -2.24147 4.12035
rtibia 38.3439
rfoot -20.4266 -6.41313
rtoes 17.8936
lfemur -21.5871 -2.11058 -25.8352
ltibia 15.3225
lfoot 7.42618 -7.14842
ltoes -9.08689
9
root -4.66317 18.0286 -5.71576 -2.38619 -46.6373 24.2014
lowerback 11.9677 2.51711 5.22943
upperback 5.78989 3.72211 10.3728
thorax -0.956209 1.67976 7.57728
lowerneck -4.92429 -14.2121 -12.1706
upperneck 30.3107 -20.5362 4.18702
head 12.6041 -10.0077 0.825597
rclavicle -3.81667e-014 -7.95139e-014
rhumerus 6.94131 -2.30477 -86.5292
rradius 35.8247
rwrist -21.2199
rhand -6.81383 -19.8941
rfingers 7.12502
rthumb 19.0499 -48.9812
lclavicle -3.81667e-014 -7.95139e-014
lhumerus -34.5262 -33.1498 102.741
lradius 78.9619
lwrist 72.58
lhand -28.1298 48.8202
lfingers 7.12502
lthumb -1.51125 78.7946
rfemur -34.2426 -2.16733 4.09359
rtibia 38.2999
rfoot -20.4166 -6.53993
rtoes 17.6116
lfemur -21.6241 -2.03144 -25.9453
ltibia 15.5232
lfoot 7.40302 -6.9546
ltoes -8.74711
